Coordinates
nRows=10
nColumns=24

# SIMM Motion File Header:
name Coordinates
datacolumns 24
datarows 10
otherdata 1
range 0.32167000000000001000 0.33067000000000002000
endheader
time	pelvis_tx	pelvis_ty	pelvis_tz	pelvis_tilt	pelvis_list	pelvis_rotation	hip_flexion_r	hip_adduction_r	hip_rotation_r	knee_angle_r	ankle_angle_r	subtalar_angle_r	mtp_angle_r	hip_flexion_l	hip_adduction_l	hip_rotation_l	knee_angle_l	ankle_angle_l	subtalar_angle_l	mtp_angle_l	lumbar_extension	lumbar_bending	lumbar_rotation
      0.32167000000000001000	      0.80462538745158008000	      0.89116954469257026000	     -0.19372624617532774000	      3.52390326118412120000	     -2.71547735054066890000	     -1.18711813693243620000	      5.85250260194971170000	      6.60947346569571970000	      2.29761920463422880000	    -14.39159870645671200000	      6.37328562136130120000	      0.00000000000001021902	      0.00000000000000000205	      8.20589359068675610000	    -10.48929410485711200000	     -6.81480925925422380000	    -62.47569630061306600000	     -3.51915489525342730000	     -0.00000000000000042359	     -0.00000000000000038722	    -10.43352956479615700000	      3.93597467173791270000	      2.20156454343499690000
      0.32267000000000001000	      0.80523932388912844000	      0.89123727106477724000	     -0.19357606937853333000	      3.52052584750679730000	     -2.70622283761736830000	     -1.18839944337264680000	      5.80033147632976750000	      6.60469112459678430000	      2.28194138887457450000	    -14.37143484906717100000	      6.40328308483580690000	      0.00000000000001057383	      0.00000000000000004166	      8.30389085237922940000	    -10.47160010618788200000	     -6.74154806879260260000	    -62.50802409731243600000	     -3.42112963568359870000	     -0.00000000000000043296	     -0.00000000000000040927	    -10.43212362244302000000	      3.91379635789671900000	      2.22872566325108100000
      0.32367000000000001000	      0.80585314178702960000	      0.89130814101671318000	     -0.19342534511151727000	      3.51934177826809110000	     -2.69769826253476270000	     -1.19058688349806710000	      5.74559154823079870000	      6.60076351903167070000	      2.26555913435672630000	    -14.35090872750474100000	      6.43365732332399710000	      0.00000000000001091917	      0.00000000000000009296	      8.39822019477816360000	    -10.45487223341283900000	     -6.67038882768411860000	    -62.53646196888966100000	     -3.33284085180421210000	     -0.00000000000000043269	     -0.00000000000000046324	    -10.43327865568261900000	      3.89237642140735880000	      2.25663286348556860000
      0.32467000000000001000	      0.80646679784335007000	      0.89138326065217521000	     -0.19327388046828731000	      3.52112263949703940000	     -2.69016069254507780000	     -1.19400166662292830000	      5.68737977126698800000	      6.59799196411386650000	      2.24822355165168060000	    -14.32989474677341800000	      6.46455332171611020000	      0.00000000000001125143	      0.00000000000000016090	      8.48758875714915460000	    -10.43945092466920800000	     -6.60207668362090680000	    -62.55963331221421000000	     -3.25772500155565760000	     -0.00000000000000041932	     -0.00000000000000056072	    -10.43789568345138400000	      3.87198218386770820000	      2.28554962744385430000
      0.32567000000000002000	      0.80708045389967042000	      0.89145838028763724000	     -0.19312241582505735000	      3.52290350072598810000	     -2.68262312255539290000	     -1.19741644974778970000	      5.62916799430317650000	      6.59522040919606220000	      2.23088796894663540000	    -14.30888076604209600000	      6.49544932010822240000	      0.00000000000001158369	      0.00000000000000022885	      8.57695731952014560000	    -10.42402961592557600000	     -6.53376453955769510000	    -62.58280465553875900000	     -3.18260915130710310000	     -0.00000000000000040596	     -0.00000000000000065820	    -10.44251271122014700000	      3.85158794632805800000	      2.31446639140213990000
      0.32667000000000002000	      0.80769322300995561000	      0.89153728352572115000	     -0.19297044151238574000	      3.52719319933643180000	     -2.67630591200711710000	     -1.20278908623026700000	      5.56821175317664170000	      6.59392043232949730000	      2.21186990840489890000	    -14.28789840962731900000	      6.52838795347080760000	      0.00000000000001189703	      0.00000000000000028418	      8.66098490656976950000	    -10.41017583069535500000	     -6.47024128316392840000	    -62.59778501644734000000	     -3.12136112652036730000	     -0.00000000000000036945	     -0.00000000000000082801	    -10.45011409318098400000	      3.83263205169081810000	      2.34456908598666920000
      0.32767000000000002000	      0.80830591742994706000	      0.89161650538340487000	     -0.19281842428012405000	      3.53169416874953780000	     -2.67009146870897270000	     -1.20832659479788230000	      5.50702439896529230000	      6.59274437799308900000	      2.19271016532700400000	    -14.26691871631649300000	      6.56149859843244700000	      0.00000000000001220878	      0.00000000000000033845	      8.74456272666699340000	    -10.39645404762410800000	     -6.40712130206781440000	    -62.61207560948082600000	     -3.06128092019731920000	     -0.00000000000000033100	     -0.00000000000000100391	    -10.45796678951964300000	      3.81379728083056650000	      2.37477164854875470000
      0.32867000000000002000	      0.80891791452658013000	      0.89169528726514258000	     -0.19266685965356017000	      3.53577347387536540000	     -2.66411278028004130000	     -1.21437950715571910000	      5.44645897702199820000	      6.59184323934533460000	      2.17270931266875330000	    -14.24623766261130900000	      6.59485226821725770000	      0.00000000000001251646	      0.00000000000000040339	      8.82784368359589070000	    -10.38293468559517800000	     -6.34561363016942530000	    -62.62374558839126600000	     -3.00039055690311820000	     -0.00000000000000028590	     -0.00000000000000118633	    -10.46537803449801600000	      3.79540125119688110000	      2.40497974936269590000
      0.32967000000000002000	      0.80952895781272272000	      0.89177346734046170000	     -0.19251591410859939000	      3.53927601957413000000	     -2.65845656128330180000	     -1.22113739739221990000	      5.38674424438158720000	      6.59131813495009490000	      2.15155797633356150000	    -14.22596509312697000000	      6.62853835139823120000	      0.00000000000001281858	      0.00000000000000048291	      8.91071858614445130000	    -10.36969219843546100000	     -6.28631130161450360000	    -62.63183104770695300000	     -2.93839204742577880000	     -0.00000000000000023173	     -0.00000000000000137767	    -10.47218545496168200000	      3.77760533911191350000	      2.43519542548966060000
      0.33067000000000002000	      0.81014000109886519000	      0.89185164741578071000	     -0.19236496856363861000	      3.54277856527289400000	     -2.65280034228656270000	     -1.22789528762872100000	      5.32702951174117610000	      6.59079303055485520000	      2.13040663999836920000	    -14.20569252364263200000	      6.66222443457920480000	      0.00000000000001312070	      0.00000000000000056244	      8.99359348869301200000	    -10.35644971127574400000	     -6.22700897305958280000	    -62.63991650702264000000	     -2.87639353794843930000	     -0.00000000000000017755	     -0.00000000000000156902	    -10.47899287542535000000	      3.75980942702694600000	      2.46541110161662540000
